<svg width="148" height="40" viewBox="0 0 148 40" fill="none" xmlns="http://www.w3.org/2000/svg">
<path d="M52.3872 6.79422V35.603H50.3059V6.79422H46.1435V4.7354H56.5496V6.79422H52.3872Z" fill="#3A3A3A"/>
<path d="M69.0222 17.0737V15.0148C69.0222 13.6472 68.3235 12.956 66.941 12.956H61.7379V10.8972H66.941C69.7209 10.8972 71.1034 12.2648 71.1034 15.0148V35.5884H64.8598C62.0799 35.5884 60.6973 34.2207 60.6973 31.4707V21.1766C60.6973 18.4266 62.0799 17.059 64.8598 17.059H69.0222V17.0737ZM69.0222 19.1325H64.8598C63.4772 19.1325 62.7785 19.8237 62.7785 21.1913V31.4854C62.7785 32.8531 63.4772 33.5443 64.8598 33.5443H69.0222V19.1325Z" fill="#3A3A3A"/>
<path d="M75.2658 15.0295C75.2658 12.2795 76.6483 10.9118 79.4282 10.9118H81.5095C84.2894 10.9118 85.6719 12.2795 85.6719 15.0295V19.1471H83.5907V15.0295C83.5907 13.6618 82.892 12.9707 81.5095 12.9707H79.4282C78.0457 12.9707 77.347 13.6618 77.347 15.0295V31.4854C77.347 32.853 78.0457 33.5442 79.4282 33.5442H81.5095C82.892 33.5442 83.5907 32.853 83.5907 31.4854V27.3677H85.6719V31.4854C85.6719 34.2354 84.2894 35.603 81.5095 35.603H79.4282C76.6483 35.603 75.2658 34.2354 75.2658 31.4854V15.0295Z" fill="#3A3A3A"/>
<path d="M91.9006 12.9707V35.603H89.8194V4.7354H91.9006V10.9119H96.063C98.8429 10.9119 100.225 12.2795 100.225 15.0295V35.603H98.1442V15.0295C98.1442 13.6619 97.4455 12.9707 96.063 12.9707H91.9006Z" fill="#3A3A3A"/>
<path d="M104.388 4.7354H106.469V33.5442H114.794V35.603H104.388V4.7354Z" fill="#3A3A3A"/>
<path d="M127.267 17.0737V15.0148C127.267 13.6472 126.568 12.956 125.185 12.956H119.982V10.8972H125.185C127.965 10.8972 129.348 12.2648 129.348 15.0148V35.5884H123.104C120.324 35.5884 118.942 34.2207 118.942 31.4707V21.1766C118.942 18.4266 120.324 17.059 123.104 17.059H127.267V17.0737ZM127.267 19.1325H123.104C121.722 19.1325 121.023 19.8237 121.023 21.1913V31.4854C121.023 32.8531 121.722 33.5443 123.104 33.5443H127.267V19.1325Z" fill="#3A3A3A"/>
<path d="M133.51 35.603V4.7354H135.591V10.9119H139.754C142.534 10.9119 143.916 12.2795 143.916 15.0295V31.4854C143.916 34.2354 142.534 35.603 139.754 35.603H133.51ZM135.591 12.9707V33.5442H139.754C141.136 33.5442 141.835 32.853 141.835 31.4854V15.0295C141.835 13.6619 141.136 12.9707 139.754 12.9707H135.591Z" fill="#3A3A3A"/>
<path d="M28.3047 11.0883H13.2455V12.75H28.3047V11.0883Z" fill="#1D88D8"/>
<path d="M19.935 11.9113V36.4848H21.6148V11.9113H19.935Z" fill="#1D88D8"/>
<path d="M37.2687 3.85286H4.28131V36.4852H18.2404V34.7205H6.06521V5.61757H35.4847V30.0146H37.2687V3.85286Z" fill="#3A3A3A"/>
<path d="M35.4847 34.7206H19.935V36.4853H37.2686V31.6765H35.4847V34.7206Z" fill="#1D88D8"/>
</svg>
